<svg version="1.1" id="Layer_1" xmlns="http://www.w3.org/2000/svg" xmlns:xlink="http://www.w3.org/1999/xlink" x="0px" y="0px"
	 width="100%" viewBox="0 0 594 420" enable-background="new 0 0 594 420" xml:space="preserve">
<path fill="#000000" opacity="1.000000" stroke="none" 
	d="
M356.000000,421.000000 
	C237.333359,421.000000 119.166725,421.000000 1.000063,421.000000 
	C1.000042,281.000061 1.000042,141.000122 1.000021,1.000139 
	C198.999893,1.000092 396.999786,1.000092 594.999756,1.000046 
	C594.999878,140.999863 594.999878,280.999725 594.999939,420.999786 
	C515.500000,421.000000 436.000000,421.000000 356.000000,421.000000 
M249.257965,291.735107 
	C249.464355,294.777588 249.670731,297.820099 249.814987,299.946594 
	C253.265198,300.161621 255.383331,300.293640 258.647095,300.497070 
	C258.257385,296.947998 257.886566,293.571198 257.515747,290.194336 
	C256.368286,290.766113 255.220825,291.337891 253.948090,291.972107 
	C253.148239,290.730072 251.996704,288.246918 248.132690,290.907043 
	C246.569046,290.509064 245.005386,290.111115 243.323120,289.682953 
	C243.323120,293.809662 243.323120,297.185699 243.323120,300.561768 
	C243.857925,300.778320 244.392746,300.994873 244.927551,301.211426 
	C245.636688,299.839691 246.463104,298.514221 247.026855,297.085144 
	C247.826859,295.057220 248.433411,292.953003 249.257965,291.735107 
M459.354706,290.333893 
	C457.996826,290.135620 456.596497,290.085144 455.289429,289.709930 
	C452.019897,288.771301 448.682892,290.711456 448.243195,293.997253 
	C448.072937,295.269653 448.088898,296.566956 448.030823,297.651154 
	C445.898865,297.315247 444.062042,297.025848 442.174011,296.728394 
	C442.174011,294.083679 442.174011,291.559967 442.174011,288.807068 
	C436.729980,289.938782 438.316376,293.662933 438.269073,296.447479 
	C438.244537,297.894196 439.245697,300.628601 439.685791,300.608795 
	C442.771881,300.470093 445.832520,299.764496 449.715302,299.101135 
	C453.880280,302.622009 457.685242,301.631653 459.915131,295.459686 
	C460.216522,294.625488 460.598328,293.820312 461.039673,293.848755 
	C461.174713,295.477722 461.087646,297.171051 461.533630,298.709900 
	C461.775543,299.544708 462.925232,300.116425 463.665436,300.806824 
	C465.477905,297.647736 467.925568,301.898163 468.998291,300.628387 
	C470.045197,299.389099 470.108368,296.940125 469.881805,295.111633 
	C469.661652,293.334747 468.864197,290.536530 467.720917,290.195374 
	C465.372040,289.494568 462.622803,290.135712 459.354706,290.333893 
M309.665710,231.750519 
	C311.004120,232.394257 312.319061,233.093338 313.684814,233.672623 
	C321.832916,237.128708 330.368958,237.435745 338.077942,233.548172 
	C349.429749,227.823486 353.789032,217.380615 353.857697,205.040573 
	C353.967957,185.221237 354.015442,165.401199 353.973022,145.581696 
	C353.963287,141.023956 353.271301,136.381027 358.836975,134.298172 
	C358.945435,134.257584 358.850586,133.673706 358.850586,133.285828 
	C355.274384,129.348450 351.674774,125.385269 347.442902,120.725983 
	C343.213074,128.966827 339.190125,136.804657 334.862030,145.237000 
	C337.315247,144.905106 339.056213,144.669571 341.265411,144.370697 
	C341.504547,149.698196 341.991974,155.083099 341.926880,160.461319 
	C341.841156,167.546158 341.147858,174.622879 341.031525,181.708298 
	C340.881195,190.866333 341.582306,200.074570 340.821869,209.169662 
	C340.487061,213.174210 338.368164,217.974854 335.435516,220.600388 
	C330.772888,224.774780 324.769623,225.691483 318.511017,222.447281 
	C312.373535,219.265869 310.052307,214.171249 309.944489,207.801971 
	C309.778198,197.977142 310.233154,188.131241 309.755157,178.326904 
	C309.531982,173.749756 311.586517,171.695129 315.158997,170.221405 
	C316.614441,169.620972 318.184845,169.299164 320.387878,168.648193 
	C318.773560,185.622513 322.613617,202.348495 317.268280,218.553497 
	C326.827667,225.257324 329.779785,221.846008 331.660797,213.925354 
	C331.889404,212.962784 331.970703,211.943878 331.969666,210.951248 
	C331.948395,190.634018 331.907074,170.316803 331.844666,149.999649 
	C331.843933,149.756317 331.515961,149.513992 331.176788,149.043991 
	C330.494232,149.251175 329.693634,149.376205 329.003204,149.721542 
	C319.620087,154.414719 310.204041,159.047318 300.934174,163.955612 
	C299.586884,164.668961 298.141998,166.725571 298.121277,168.180283 
	C297.914642,182.668930 297.894409,197.163116 298.092224,211.652054 
	C298.128754,214.327667 298.835907,217.307114 300.183044,219.584702 
	C302.745819,223.917618 305.994263,227.845001 308.571899,232.730072 
	C306.842865,231.540802 304.927795,230.546371 303.429474,229.115524 
	C301.306793,227.088425 299.910065,223.869888 297.465363,222.692917 
	C290.426727,219.304276 288.081207,213.607468 288.025940,206.479675 
	C287.933533,194.568100 288.000702,182.655304 288.000702,170.304047 
	C285.283905,171.371765 283.063873,172.203629 280.876282,173.113571 
	C277.601715,174.475677 275.798615,176.438965 275.958954,180.519638 
	C276.324707,189.825363 276.279022,199.160751 276.030182,208.474182 
	C275.584198,225.166550 292.599487,239.691742 308.897400,235.354660 
	C308.897400,234.203415 308.897400,233.028000 309.665710,231.750519 
M258.836853,269.435730 
	C253.014450,261.837616 262.735931,258.978149 264.052002,253.485123 
	C257.358795,252.716537 250.949448,251.796005 246.673492,258.722107 
	C246.673492,256.993164 246.673492,255.264221 246.673492,253.551239 
	C242.932053,253.551239 239.551376,253.551239 236.272705,253.551239 
	C236.272705,261.523651 236.272705,269.119141 236.272705,276.643433 
	C239.943832,276.643433 243.339691,276.643433 246.703888,276.643433 
	C246.836060,274.625580 246.945282,272.958038 247.054504,271.290466 
	C251.159103,278.682251 257.610016,277.147919 264.807007,276.710175 
	C262.673279,274.094330 261.010284,272.055573 258.836853,269.435730 
M273.085358,275.794708 
	C276.819916,276.195831 280.550446,276.874573 284.290039,276.928802 
	C289.128906,276.998993 293.071655,273.615173 294.350922,268.903809 
	C295.697510,263.944427 293.937500,257.756012 290.499451,255.361740 
	C284.113617,250.914612 274.773071,251.373962 270.217133,256.600647 
	C266.335876,261.053284 265.141785,269.299957 273.085358,275.794708 
M376.071320,260.164276 
	C376.123199,265.480713 375.134918,270.789642 380.355225,274.983002 
	C384.213715,278.082489 388.159790,276.564880 392.060760,276.932800 
	C397.276123,277.424683 400.640869,274.571259 402.272491,269.878326 
	C403.857819,265.318420 403.999603,260.283478 400.421234,256.865051 
	C392.812561,249.596375 381.999054,251.159225 376.071320,260.164276 
M319.737030,275.011810 
	C325.161591,278.183319 330.983307,277.902008 336.421936,275.770233 
	C338.684296,274.883423 340.035889,271.673035 341.801666,269.519257 
	C339.915558,268.593140 338.069458,267.023224 336.133270,266.902863 
	C333.677368,266.750214 331.148254,267.774658 327.495483,268.530609 
	C327.171875,267.264587 326.666260,265.286499 326.160645,263.308411 
	C328.041016,263.113617 329.918396,262.880157 331.802460,262.732574 
	C335.125427,262.472290 338.452484,262.264374 341.945526,262.022949 
	C340.328369,256.121185 336.138275,252.941330 330.134186,252.310257 
	C324.279388,251.694885 318.939972,254.492355 316.182983,259.619781 
	C313.691895,264.252655 314.743134,269.554718 319.737030,275.011810 
M369.669525,267.068054 
	C370.025055,264.844116 371.218475,262.305664 370.530579,260.473419 
	C369.606567,258.012207 373.386627,253.610657 368.451202,253.173325 
	C361.755432,252.579987 354.967590,253.025620 348.285217,253.025620 
	C348.285217,261.400818 348.285217,269.001160 348.285217,276.613953 
	C351.917145,276.613953 355.286469,276.613953 358.885742,276.613953 
	C358.885742,274.295624 358.885742,272.348755 358.885742,270.988037 
	C362.713043,269.900146 366.165222,268.918854 369.669525,267.068054 
M218.076691,272.215240 
	C218.403641,277.578033 219.756439,278.115692 228.548126,276.362244 
	C228.548126,268.692230 228.548126,261.020508 228.548126,253.311264 
	C224.832779,253.311264 221.583481,253.311264 218.072739,253.311264 
	C218.072739,259.414673 218.072739,265.342804 218.076691,272.215240 
M362.247620,300.781525 
	C362.626251,297.898285 363.084534,295.022003 363.336090,292.127716 
	C363.413849,291.233063 362.928619,290.289459 362.701172,289.368286 
	C361.610168,289.703613 360.257538,289.752106 359.495056,290.447601 
	C358.562683,291.298035 358.125153,292.690918 357.303406,294.151917 
	C355.650482,291.224457 354.223053,288.235260 350.690796,290.799591 
	C350.887878,294.223724 351.072540,297.431549 351.238251,300.310150 
	C354.710205,300.528900 358.042664,300.738861 362.247620,300.781525 
M178.352005,300.594666 
	C178.612762,297.892303 178.940720,295.193726 179.091904,292.485260 
	C179.135330,291.707123 178.668457,290.900513 178.435577,290.106995 
	C177.558395,290.371552 176.406586,290.378632 175.864197,290.957092 
	C174.893829,291.992004 174.290634,293.371185 173.708786,294.321045 
	C172.225159,292.752777 170.686462,291.126312 169.147766,289.499878 
	C168.754181,289.802216 168.360611,290.104553 167.967041,290.406891 
	C167.967041,292.053802 167.967041,293.700745 167.967041,295.347656 
	C167.967041,297.078766 167.967041,298.809875 167.967041,300.613098 
	C170.082291,300.613098 171.482010,300.604889 172.881607,300.615234 
	C174.458313,300.626923 176.034866,300.655304 178.352005,300.594666 
M156.722946,300.100220 
	C157.929535,300.313019 159.133118,300.687439 160.343231,300.709869 
	C164.909546,300.794495 165.066101,297.665924 165.096085,294.249146 
	C165.128433,290.561157 163.073257,289.819336 159.966171,289.918457 
	C154.240005,290.101196 152.821762,293.626099 156.722946,300.100220 
M220.192612,290.647980 
	C219.685318,290.864044 219.113174,291.350342 218.682587,291.247009 
	C217.224091,290.896851 215.815704,290.337921 214.074097,289.753326 
	C213.907211,293.215393 218.859680,295.988373 213.620880,298.053497 
	C214.284561,298.948578 214.946182,300.605438 215.612289,300.607239 
	C218.542603,300.615143 221.474197,300.145233 224.842575,299.804260 
	C224.765793,299.392395 224.525055,298.386322 224.400879,297.366058 
	C224.228210,295.947479 224.094269,294.520294 224.035675,293.093018 
	C223.988922,291.954346 224.079620,290.810028 224.109299,289.668213 
	C222.986801,289.823608 221.864319,289.979004 220.192612,290.647980 
M205.694305,301.001251 
	C207.732086,300.814270 209.769867,300.627319 211.312500,300.485779 
	C211.312500,296.694305 211.312500,293.595337 211.312500,289.436890 
	C208.785599,289.724304 206.124985,290.026917 203.464386,290.329529 
	C203.919769,293.829468 204.375153,297.329437 205.694305,301.001251 
M409.193787,289.033417 
	C403.264679,289.714722 402.519989,291.632935 404.761230,300.953888 
	C407.507202,300.699188 410.288239,300.441254 412.614716,300.225464 
	C412.361664,297.217773 411.544373,294.961365 412.172089,293.228333 
	C413.129944,290.583771 411.953125,289.834045 409.193787,289.033417 
M476.949707,289.936310 
	C475.424103,290.196289 472.601349,290.371490 472.577972,290.729614 
	C472.389496,293.613678 471.802612,297.158203 473.207855,299.235992 
	C474.272949,300.810822 478.082397,300.529633 480.746613,301.090363 
	C480.746613,297.534363 480.343353,294.973206 480.843811,292.602814 
	C481.544342,289.284729 479.459656,290.045166 476.949707,289.936310 
M300.272980,301.022980 
	C301.469818,300.762970 302.666656,300.502991 303.349518,300.354645 
	C303.349518,296.695557 303.349518,293.578522 303.349518,290.209076 
	C300.968567,290.209076 298.228607,290.209076 295.338593,290.209076 
	C295.338593,293.645081 295.338593,297.021698 295.338593,300.495697 
	C296.839111,300.681091 298.116821,300.838959 300.272980,301.022980 
M277.805115,299.948822 
	C279.427124,301.197296 280.880127,301.685669 280.992401,298.850922 
	C281.107422,295.946625 281.017853,293.034271 281.017853,290.192413 
	C277.856445,290.192413 275.262207,290.192413 272.693268,290.192413 
	C272.483368,292.259033 272.079254,294.117523 272.175629,295.949677 
	C272.254852,297.455353 272.627716,299.159119 273.496185,300.297852 
	C273.814758,300.715546 275.930634,299.762482 277.805115,299.948822 
M422.937714,289.512756 
	C420.886841,293.457642 417.394409,288.249878 414.769257,290.951294 
	C415.549683,292.437897 416.336823,293.937317 416.687012,294.604370 
	C415.577576,296.934723 414.796875,298.574615 414.016174,300.214478 
	C414.465912,300.518677 414.915649,300.822845 415.365387,301.127014 
	C416.927826,300.055847 418.490265,298.984711 418.836945,298.747040 
	C421.817474,299.414734 423.698578,299.836151 425.579712,300.257568 
	C425.734375,299.739868 425.889008,299.222168 426.043640,298.704437 
	C424.951294,297.539032 423.858978,296.373627 422.739075,295.178802 
	C423.884277,293.492737 424.887909,292.015137 425.899109,290.531860 
	C425.100739,290.034088 424.302338,289.536285 422.937714,289.512756 
M342.145142,294.056396 
	C341.100769,292.377258 340.025299,289.263397 339.017822,289.285248 
	C335.869232,289.353607 333.569916,291.241913 334.594696,295.046173 
	C335.085846,296.869537 335.234375,299.201202 336.447632,300.274292 
	C337.321106,301.046814 340.329407,300.723877 341.232117,299.782990 
	C342.179535,298.795532 341.751740,296.488708 342.145142,294.056396 
M483.624817,290.021210 
	C483.624817,293.391815 483.624817,296.762451 483.624817,301.387390 
	C486.349884,300.545746 489.909912,300.492279 490.945099,298.848633 
	C492.109558,296.999725 491.677734,293.379028 490.595795,291.195190 
	C490.028381,290.049835 486.584808,290.329437 483.624817,290.021210 
M435.898071,290.652557 
	C433.178619,290.280853 430.459167,289.909149 427.727997,289.535828 
	C427.414612,292.634735 426.964508,294.604004 427.103912,296.530640 
	C427.206482,297.948486 428.080078,299.310516 428.610107,300.697388 
	C429.523224,299.872559 430.401337,299.003754 431.362183,298.238861 
	C431.968018,297.756531 432.654114,297.300903 433.379364,297.055634 
	C436.369110,296.044678 437.628723,294.172668 435.898071,290.652557 
M326.016113,297.195190 
	C326.010986,295.883911 326.429688,294.358582 325.900970,293.311707 
	C325.115051,291.755493 323.659180,290.537628 322.488464,289.175751 
	C321.085022,290.444214 319.526703,291.587219 318.350372,293.039612 
	C317.841583,293.667816 317.853088,295.009460 318.100464,295.895203 
	C318.569092,297.573517 319.378448,299.156677 320.046265,300.779358 
	C322.020203,299.867767 323.994110,298.956177 326.016113,297.195190 
M371.865936,289.308929 
	C369.577759,289.936035 365.384369,290.439331 365.334167,291.211914 
	C365.126617,294.405487 363.544800,298.434692 367.727509,300.991730 
	C368.933167,299.544891 369.732208,297.723145 371.071411,297.138184 
	C375.359406,295.265259 374.829956,292.863434 371.865936,289.308929 
M270.774536,298.628143 
	C269.705231,296.239258 268.891693,293.675507 267.438049,291.549377 
	C266.873383,290.723511 263.814758,290.381134 263.672760,290.675995 
	C262.171021,293.794373 261.028931,297.085968 259.787720,300.329803 
	C260.278137,300.653442 260.768555,300.977081 261.259003,301.300720 
	C262.539856,300.252625 263.820740,299.204498 265.101593,298.156403 
	C265.062958,298.566956 265.024292,298.977509 264.985657,299.388062 
	C266.911835,299.388062 268.837982,299.388062 270.774536,298.628143 
M148.605484,297.111328 
	C145.774948,295.162140 147.746536,294.416199 149.498291,293.715088 
	C150.681961,293.241333 151.929733,292.927734 153.682617,292.373810 
	C149.989044,289.639526 146.147705,289.001556 145.142059,290.996490 
	C144.121918,293.020142 143.607620,295.870514 144.192169,297.995575 
	C145.039505,301.076080 148.068832,301.320526 150.773819,300.328033 
	C151.673126,299.998077 152.178574,298.594604 152.864090,297.681946 
	C151.700775,297.473511 150.537445,297.265076 148.605484,297.111328 
M186.247330,289.005920 
	C181.321686,290.386200 181.035446,291.245819 182.638565,301.543060 
	C184.524399,299.708313 185.902832,298.363068 187.286026,297.022736 
	C188.474762,295.870850 190.863449,294.260254 190.631958,293.664673 
	C189.991699,292.017395 188.258942,290.794708 186.247330,289.005920 
M284.186981,291.902191 
	C283.888611,292.996674 282.991089,294.479980 283.402466,295.113892 
	C284.721741,297.146912 286.201752,299.798798 288.214447,300.496521 
	C291.594360,301.668243 292.333191,300.697205 292.549866,297.675537 
	C290.570251,296.927490 288.680573,296.213409 286.790863,295.499359 
	C286.952698,294.983093 287.114532,294.466858 287.276367,293.950623 
	C288.055084,293.881805 288.837463,293.840393 289.611450,293.736420 
	C290.370819,293.634399 291.121674,293.468750 291.857300,293.334503 
	C291.285004,288.384247 290.308685,288.142639 284.186981,291.902191 
M390.900146,291.546173 
	C390.335236,290.131409 389.770325,288.716644 389.205414,287.301880 
	C385.662445,292.071960 389.034332,299.875031 392.093262,300.317017 
	C393.488586,296.575714 394.835938,292.963013 396.183289,289.350342 
	C395.770660,289.123962 395.358032,288.897614 394.945404,288.671234 
	C393.823822,289.729828 392.702240,290.788391 390.900146,291.546173 
M240.935211,292.166962 
	C239.326996,287.518982 235.965347,290.972809 233.247894,290.018921 
	C233.247894,293.913147 233.247894,297.277985 233.247894,300.642822 
	C233.709488,300.900574 234.171097,301.158356 234.632690,301.416107 
	C236.601669,298.588501 238.570633,295.760864 240.935211,292.166962 
M201.268433,299.988312 
	C202.404526,294.815247 197.650116,298.262177 196.033875,296.231476 
	C196.033875,294.544342 196.033875,292.448303 196.033875,290.352295 
	C195.606979,290.072144 195.180084,289.791992 194.753189,289.511841 
	C193.939636,290.514099 192.541290,291.443909 192.406631,292.530304 
	C191.473969,300.054443 192.535370,301.004456 201.268433,299.988312 
M376.239777,296.306122 
	C376.618927,301.241425 380.052521,302.384979 385.595917,298.738892 
	C383.472809,297.764709 381.759583,296.978577 380.321838,296.318878 
	C380.009308,293.780640 379.722717,291.453278 379.430695,289.081604 
	C374.681396,290.019501 376.489685,293.133667 376.239777,296.306122 
M344.980560,293.702240 
	C344.980560,295.963074 344.980560,298.223877 344.980560,300.484711 
	C345.478088,300.722443 345.975586,300.960205 346.473114,301.197937 
	C347.253906,300.076599 348.395630,299.050690 348.723785,297.809662 
	C349.130066,296.273224 349.103638,294.513519 348.811249,292.934143 
	C348.558044,291.566711 347.672241,290.316345 347.066071,289.014221 
	C346.375092,290.281250 345.684143,291.548248 344.980560,293.702240 
M315.018341,300.310913 
	C315.384888,296.690552 315.751434,293.070160 316.185181,288.786072 
	C311.495850,291.143585 310.757935,298.584747 313.811188,300.834137 
	C313.907776,300.905304 314.128296,300.808197 315.018341,300.310913 
z"/>
<path fill="#FCF5F8" opacity="1.000000" stroke="none" 
	d="
M308.957977,231.940781 
	C305.994263,227.845001 302.745819,223.917618 300.183044,219.584702 
	C298.835907,217.307114 298.128754,214.327667 298.092224,211.652054 
	C297.894409,197.163116 297.914642,182.668930 298.121277,168.180283 
	C298.141998,166.725571 299.586884,164.668961 300.934174,163.955612 
	C310.204041,159.047318 319.620087,154.414719 329.003204,149.721542 
	C329.693634,149.376205 330.494232,149.251175 331.176788,149.043991 
	C331.515961,149.513992 331.843933,149.756317 331.844666,149.999649 
	C331.907074,170.316803 331.948395,190.634018 331.969666,210.951248 
	C331.970703,211.943878 331.889404,212.962784 331.660797,213.925354 
	C329.779785,221.846008 326.827667,225.257324 317.268280,218.553497 
	C322.613617,202.348495 318.773560,185.622513 320.387878,168.648193 
	C318.184845,169.299164 316.614441,169.620972 315.158997,170.221405 
	C311.586517,171.695129 309.531982,173.749756 309.755157,178.326904 
	C310.233154,188.131241 309.778198,197.977142 309.944489,207.801971 
	C310.052307,214.171249 312.373535,219.265869 318.511017,222.447281 
	C324.769623,225.691483 330.772888,224.774780 335.435516,220.600388 
	C338.368164,217.974854 340.487061,213.174210 340.821869,209.169662 
	C341.582306,200.074570 340.881195,190.866333 341.031525,181.708298 
	C341.147858,174.622879 341.841156,167.546158 341.926880,160.461319 
	C341.991974,155.083099 341.504547,149.698196 341.265411,144.370697 
	C339.056213,144.669571 337.315247,144.905106 334.862030,145.237000 
	C339.190125,136.804657 343.213074,128.966827 347.442902,120.725983 
	C351.674774,125.385269 355.274384,129.348450 358.850586,133.285828 
	C358.850586,133.673706 358.945435,134.257584 358.836975,134.298172 
	C353.271301,136.381027 353.963287,141.023956 353.973022,145.581696 
	C354.015442,165.401199 353.967957,185.221237 353.857697,205.040573 
	C353.789032,217.380615 349.429749,227.823486 338.077942,233.548172 
	C330.368958,237.435745 321.832916,237.128708 313.684814,233.672623 
	C312.319061,233.093338 311.004120,232.394257 309.282410,231.833405 
	C308.899139,231.916306 308.957977,231.940781 308.957977,231.940781 
z"/>
<path fill="#FAF2F7" opacity="1.000000" stroke="none" 
	d="
M308.898254,231.884460 
	C308.897400,233.028000 308.897400,234.203415 308.897400,235.354660 
	C292.599487,239.691742 275.584198,225.166550 276.030182,208.474182 
	C276.279022,199.160751 276.324707,189.825363 275.958954,180.519638 
	C275.798615,176.438965 277.601715,174.475677 280.876282,173.113571 
	C283.063873,172.203629 285.283905,171.371765 288.000702,170.304047 
	C288.000702,182.655304 287.933533,194.568100 288.025940,206.479675 
	C288.081207,213.607468 290.426727,219.304276 297.465363,222.692917 
	C299.910065,223.869888 301.306793,227.088425 303.429474,229.115524 
	C304.927795,230.546371 306.842865,231.540802 308.764954,232.335419 
	C308.957977,231.940781 308.899139,231.916306 308.898254,231.884460 
z"/>
<path fill="#FAF2F7" opacity="1.000000" stroke="none" 
	d="
M259.092072,269.726288 
	C261.010284,272.055573 262.673279,274.094330 264.807007,276.710175 
	C257.610016,277.147919 251.159103,278.682251 247.054504,271.290466 
	C246.945282,272.958038 246.836060,274.625580 246.703888,276.643433 
	C243.339691,276.643433 239.943832,276.643433 236.272705,276.643433 
	C236.272705,269.119141 236.272705,261.523651 236.272705,253.551239 
	C239.551376,253.551239 242.932053,253.551239 246.673492,253.551239 
	C246.673492,255.264221 246.673492,256.993164 246.673492,258.722107 
	C250.949448,251.796005 257.358795,252.716537 264.052002,253.485123 
	C262.735931,258.978149 253.014450,261.837616 259.092072,269.726288 
z"/>
<path fill="#F6EBF0" opacity="1.000000" stroke="none" 
	d="
M272.705322,275.679199 
	C265.141785,269.299957 266.335876,261.053284 270.217133,256.600647 
	C274.773071,251.373962 284.113617,250.914612 290.499451,255.361740 
	C293.937500,257.756012 295.697510,263.944427 294.350922,268.903809 
	C293.071655,273.615173 289.128906,276.998993 284.290039,276.928802 
	C280.550446,276.874573 276.819916,276.195831 272.705322,275.679199 
M282.936768,262.349060 
	C280.709808,261.491760 278.515656,261.242493 278.126373,264.289978 
	C277.972321,265.495880 278.824402,266.994629 279.605194,268.082397 
	C279.965240,268.583984 281.964111,268.664459 282.015015,268.517822 
	C282.642609,266.708954 283.047333,264.822754 282.936768,262.349060 
z"/>
<path fill="#FAF2F7" opacity="1.000000" stroke="none" 
	d="
M376.134216,259.746338 
	C381.999054,251.159225 392.812561,249.596375 400.421234,256.865051 
	C403.999603,260.283478 403.857819,265.318420 402.272491,269.878326 
	C400.640869,274.571259 397.276123,277.424683 392.060760,276.932800 
	C388.159790,276.564880 384.213715,278.082489 380.355225,274.983002 
	C375.134918,270.789642 376.123199,265.480713 376.134216,259.746338 
M389.952240,268.642456 
	C390.788666,267.425690 392.174866,266.255554 392.283203,264.977081 
	C392.366211,263.997925 391.019928,262.426422 389.954163,261.994232 
	C389.293396,261.726227 387.020264,263.300385 387.105408,263.693878 
	C387.486145,265.453064 388.454407,267.085083 389.952240,268.642456 
z"/>
<path fill="#F6EBF0" opacity="1.000000" stroke="none" 
	d="
M319.437256,274.766602 
	C314.743134,269.554718 313.691895,264.252655 316.182983,259.619781 
	C318.939972,254.492355 324.279388,251.694885 330.134186,252.310257 
	C336.138275,252.941330 340.328369,256.121185 341.945526,262.022949 
	C338.452484,262.264374 335.125427,262.472290 331.802460,262.732574 
	C329.918396,262.880157 328.041016,263.113617 326.160645,263.308411 
	C326.666260,265.286499 327.171875,267.264587 327.495483,268.530609 
	C331.148254,267.774658 333.677368,266.750214 336.133270,266.902863 
	C338.069458,267.023224 339.915558,268.593140 341.801636,269.519257 
	C340.035889,271.673035 338.684296,274.883423 336.421936,275.770233 
	C330.983307,277.902008 325.161591,278.183319 319.437256,274.766602 
z"/>
<path fill="#FAF2F7" opacity="1.000000" stroke="none" 
	d="
M369.643494,267.502808 
	C366.165222,268.918854 362.713043,269.900146 358.885742,270.988037 
	C358.885742,272.348755 358.885742,274.295624 358.885742,276.613953 
	C355.286469,276.613953 351.917145,276.613953 348.285217,276.613953 
	C348.285217,269.001160 348.285217,261.400818 348.285217,253.025620 
	C354.967590,253.025620 361.755432,252.579987 368.451202,253.173325 
	C373.386627,253.610657 369.606567,258.012207 370.530579,260.473419 
	C371.218475,262.305664 370.025055,264.844116 369.643494,267.502808 
z"/>
<path fill="#FAF2F7" opacity="1.000000" stroke="none" 
	d="
M218.074707,271.743103 
	C218.072739,265.342804 218.072739,259.414673 218.072739,253.311264 
	C221.583481,253.311264 224.832779,253.311264 228.548126,253.311264 
	C228.548126,261.020508 228.548126,268.692230 228.548126,276.362244 
	C219.756439,278.115692 218.403641,277.578033 218.074707,271.743103 
z"/>
<path fill="#EFDBE5" opacity="1.000000" stroke="none" 
	d="
M460.942871,293.001678 
	C460.598328,293.820312 460.216522,294.625488 459.915131,295.459686 
	C457.685242,301.631653 453.880280,302.622009 449.715302,299.101135 
	C445.832520,299.764496 442.771881,300.470093 439.685791,300.608795 
	C439.245697,300.628601 438.244537,297.894196 438.269073,296.447479 
	C438.316376,293.662933 436.729980,289.938782 442.174011,288.807068 
	C442.174011,291.559967 442.174011,294.083679 442.174011,296.728394 
	C444.062042,297.025848 445.898865,297.315247 448.030823,297.651154 
	C448.088898,296.566956 448.072937,295.269653 448.243195,293.997253 
	C448.682892,290.711456 452.019897,288.771301 455.289429,289.709930 
	C456.596497,290.085144 457.996826,290.135620 459.729126,290.574036 
	C460.383301,291.543365 460.663055,292.272522 460.942871,293.001678 
z"/>
<path fill="#F6EBF0" opacity="1.000000" stroke="none" 
	d="
M361.811401,300.865173 
	C358.042664,300.738861 354.710205,300.528900 351.238251,300.310150 
	C351.072540,297.431549 350.887878,294.223724 350.690796,290.799591 
	C354.223053,288.235260 355.650482,291.224457 357.303406,294.151917 
	C358.125153,292.690918 358.562683,291.298035 359.495056,290.447601 
	C360.257538,289.752106 361.610168,289.703613 362.701172,289.368286 
	C362.928619,290.289459 363.413849,291.233063 363.336090,292.127716 
	C363.084534,295.022003 362.626251,297.898285 361.811401,300.865173 
z"/>
<path fill="#EFDBE5" opacity="1.000000" stroke="none" 
	d="
M177.981750,300.635559 
	C176.034866,300.655304 174.458313,300.626923 172.881607,300.615234 
	C171.482010,300.604889 170.082291,300.613098 167.967041,300.613098 
	C167.967041,298.809875 167.967041,297.078766 167.967041,295.347656 
	C167.967041,293.700745 167.967041,292.053802 167.967041,290.406891 
	C168.360611,290.104553 168.754181,289.802216 169.147766,289.499878 
	C170.686462,291.126312 172.225159,292.752777 173.708786,294.321045 
	C174.290634,293.371185 174.893829,291.992004 175.864197,290.957092 
	C176.406586,290.378632 177.558395,290.371552 178.435577,290.106995 
	C178.668457,290.900513 179.135330,291.707123 179.091904,292.485260 
	C178.940720,295.193726 178.612762,297.892303 177.981750,300.635559 
z"/>
<path fill="#E6CFE3" opacity="1.000000" stroke="none" 
	d="
M156.449219,299.813843 
	C152.821762,293.626099 154.240005,290.101196 159.966171,289.918457 
	C163.073257,289.819336 165.128433,290.561157 165.096085,294.249146 
	C165.066101,297.665924 164.909546,300.794495 160.343231,300.709869 
	C159.133118,300.687439 157.929535,300.313019 156.449219,299.813843 
z"/>
<path fill="#F6EBF0" opacity="1.000000" stroke="none" 
	d="
M460.991272,293.425232 
	C460.663055,292.272522 460.383301,291.543365 460.070923,290.519348 
	C462.622803,290.135712 465.372040,289.494568 467.720917,290.195374 
	C468.864197,290.536530 469.661652,293.334747 469.881805,295.111633 
	C470.108368,296.940125 470.045197,299.389099 468.998291,300.628387 
	C467.925568,301.898163 465.477905,297.647736 463.665436,300.806824 
	C462.925232,300.116425 461.775543,299.544708 461.533630,298.709900 
	C461.087646,297.171051 461.174713,295.477722 460.991272,293.425232 
z"/>
<path fill="#E6CFE3" opacity="1.000000" stroke="none" 
	d="
M220.467224,290.391174 
	C221.864319,289.979004 222.986801,289.823608 224.109299,289.668213 
	C224.079620,290.810028 223.988922,291.954346 224.035675,293.093018 
	C224.094269,294.520294 224.228210,295.947479 224.400879,297.366058 
	C224.525055,298.386322 224.765793,299.392395 224.842575,299.804260 
	C221.474197,300.145233 218.542603,300.615143 215.612289,300.607239 
	C214.946182,300.605438 214.284561,298.948578 213.620880,298.053497 
	C218.859680,295.988373 213.907211,293.215393 214.074097,289.753326 
	C215.815704,290.337921 217.224091,290.896851 218.682587,291.247009 
	C219.113174,291.350342 219.685318,290.864044 220.467224,290.391174 
z"/>
<path fill="#EFDBE5" opacity="1.000000" stroke="none" 
	d="
M205.262421,300.915314 
	C204.375153,297.329437 203.919769,293.829468 203.464386,290.329529 
	C206.124985,290.026917 208.785599,289.724304 211.312500,289.436890 
	C211.312500,293.595337 211.312500,296.694305 211.312500,300.485779 
	C209.769867,300.627319 207.732086,300.814270 205.262421,300.915314 
z"/>
<path fill="#F6EBF0" opacity="1.000000" stroke="none" 
	d="
M409.608948,289.062317 
	C411.953125,289.834045 413.129944,290.583771 412.172089,293.228333 
	C411.544373,294.961365 412.361664,297.217773 412.614716,300.225464 
	C410.288239,300.441254 407.507202,300.699188 404.761230,300.953888 
	C402.519989,291.632935 403.264679,289.714722 409.608948,289.062317 
z"/>
<path fill="#EFDBE5" opacity="1.000000" stroke="none" 
	d="
M477.359924,289.951691 
	C479.459656,290.045166 481.544342,289.284729 480.843811,292.602814 
	C480.343353,294.973206 480.746613,297.534363 480.746613,301.090363 
	C478.082397,300.529633 474.272949,300.810822 473.207855,299.235992 
	C471.802612,297.158203 472.389496,293.613678 472.577972,290.729614 
	C472.601349,290.371490 475.424103,290.196289 477.359924,289.951691 
z"/>
<path fill="#EFDBE5" opacity="1.000000" stroke="none" 
	d="
M299.833740,301.009918 
	C298.116821,300.838959 296.839111,300.681091 295.338593,300.495697 
	C295.338593,297.021698 295.338593,293.645081 295.338593,290.209076 
	C298.228607,290.209076 300.968567,290.209076 303.349518,290.209076 
	C303.349518,293.578522 303.349518,296.695557 303.349518,300.354645 
	C302.666656,300.502991 301.469818,300.762970 299.833740,301.009918 
z"/>
<path fill="#F6EBF0" opacity="1.000000" stroke="none" 
	d="
M277.515869,299.691772 
	C275.930634,299.762482 273.814758,300.715546 273.496185,300.297852 
	C272.627716,299.159119 272.254852,297.455353 272.175629,295.949677 
	C272.079254,294.117523 272.483368,292.259033 272.693268,290.192413 
	C275.262207,290.192413 277.856445,290.192413 281.017853,290.192413 
	C281.017853,293.034271 281.107422,295.946625 280.992401,298.850922 
	C280.880127,301.685669 279.427124,301.197296 277.515869,299.691772 
z"/>
<path fill="#EFDBE5" opacity="1.000000" stroke="none" 
	d="
M423.220825,289.275635 
	C424.302338,289.536285 425.100739,290.034088 425.895325,290.534698 
	C424.887909,292.015137 423.884277,293.492737 422.739075,295.178802 
	C423.858978,296.373627 424.951294,297.539032 426.043640,298.704437 
	C425.889008,299.222168 425.734375,299.739868 425.579712,300.257568 
	C423.698578,299.836151 421.817474,299.414734 418.836945,298.747040 
	C418.490265,298.984711 416.927826,300.055847 415.365387,301.127014 
	C414.915649,300.822845 414.465912,300.518677 414.016174,300.214478 
	C414.796875,298.574615 415.577576,296.934723 416.687012,294.604370 
	C416.336823,293.937317 415.549683,292.437897 414.769257,290.951294 
	C417.394409,288.249878 420.886841,293.457642 423.220825,289.275635 
z"/>
<path fill="#F6EBF0" opacity="1.000000" stroke="none" 
	d="
M249.127106,290.965057 
	C251.996704,288.246918 253.148239,290.730072 253.948090,291.972107 
	C255.220825,291.337891 256.368286,290.766113 257.515747,290.194336 
	C257.886566,293.571198 258.257385,296.947998 258.647095,300.497070 
	C255.383331,300.293640 253.265198,300.161621 249.814987,299.946594 
	C249.670731,297.820099 249.464355,294.777588 249.173706,291.320007 
	C249.089462,290.904938 249.127106,290.965057 249.127106,290.965057 
z"/>
<path fill="#EFDBE5" opacity="1.000000" stroke="none" 
	d="
M342.035034,294.407410 
	C341.751740,296.488708 342.179535,298.795532 341.232117,299.782990 
	C340.329407,300.723877 337.321106,301.046814 336.447632,300.274292 
	C335.234375,299.201202 335.085846,296.869537 334.594696,295.046173 
	C333.569916,291.241913 335.869232,289.353607 339.017822,289.285248 
	C340.025299,289.263397 341.100769,292.377258 342.035034,294.407410 
z"/>
<path fill="#EFDBE5" opacity="1.000000" stroke="none" 
	d="
M484.032471,289.993408 
	C486.584808,290.329437 490.028381,290.049835 490.595795,291.195190 
	C491.677734,293.379028 492.109558,296.999725 490.945099,298.848633 
	C489.909912,300.492279 486.349884,300.545746 483.624817,301.387390 
	C483.624817,296.762451 483.624817,293.391815 484.032471,289.993408 
z"/>
<path fill="#EFDBE5" opacity="1.000000" stroke="none" 
	d="
M436.246277,290.846954 
	C437.628723,294.172668 436.369110,296.044678 433.379364,297.055634 
	C432.654114,297.300903 431.968018,297.756531 431.362183,298.238861 
	C430.401337,299.003754 429.523224,299.872559 428.610107,300.697388 
	C428.080078,299.310516 427.206482,297.948486 427.103912,296.530640 
	C426.964508,294.604004 427.414612,292.634735 427.727997,289.535828 
	C430.459167,289.909149 433.178619,290.280853 436.246277,290.846954 
z"/>
<path fill="#EFDBE5" opacity="1.000000" stroke="none" 
	d="
M325.992065,297.619873 
	C323.994110,298.956177 322.020203,299.867767 320.046265,300.779358 
	C319.378448,299.156677 318.569092,297.573517 318.100464,295.895203 
	C317.853088,295.009460 317.841583,293.667816 318.350372,293.039612 
	C319.526703,291.587219 321.085022,290.444214 322.488464,289.175751 
	C323.659180,290.537628 325.115051,291.755493 325.900970,293.311707 
	C326.429688,294.358582 326.010986,295.883911 325.992065,297.619873 
z"/>
<path fill="#F6EBF0" opacity="1.000000" stroke="none" 
	d="
M372.144531,289.619781 
	C374.829956,292.863434 375.359406,295.265259 371.071411,297.138184 
	C369.732208,297.723145 368.933167,299.544891 367.727509,300.991730 
	C363.544800,298.434692 365.126617,294.405487 365.334167,291.211914 
	C365.384369,290.439331 369.577759,289.936035 372.144531,289.619781 
z"/>
<path fill="#E6CFE3" opacity="1.000000" stroke="none" 
	d="
M270.769348,299.008118 
	C268.837982,299.388062 266.911835,299.388062 264.985657,299.388062 
	C265.024292,298.977509 265.062958,298.566956 265.101593,298.156403 
	C263.820740,299.204498 262.539856,300.252625 261.259003,301.300720 
	C260.768555,300.977081 260.278137,300.653442 259.787720,300.329803 
	C261.028931,297.085968 262.171021,293.794373 263.672760,290.675995 
	C263.814758,290.381134 266.873383,290.723511 267.438049,291.549377 
	C268.891693,293.675507 269.705231,296.239258 270.769348,299.008118 
z"/>
<path fill="#E6CFE3" opacity="1.000000" stroke="none" 
	d="
M148.989807,297.083984 
	C150.537445,297.265076 151.700775,297.473511 152.864090,297.681946 
	C152.178574,298.594604 151.673126,299.998077 150.773819,300.328033 
	C148.068832,301.320526 145.039505,301.076080 144.192169,297.995575 
	C143.607620,295.870514 144.121918,293.020142 145.142059,290.996490 
	C146.147705,289.001556 149.989044,289.639526 153.682617,292.373810 
	C151.929733,292.927734 150.681961,293.241333 149.498291,293.715088 
	C147.746536,294.416199 145.774948,295.162140 148.989807,297.083984 
z"/>
<path fill="#F6EBF0" opacity="1.000000" stroke="none" 
	d="
M186.602707,289.205048 
	C188.258942,290.794708 189.991699,292.017395 190.631958,293.664673 
	C190.863449,294.260254 188.474762,295.870850 187.286026,297.022736 
	C185.902832,298.363068 184.524399,299.708313 182.638565,301.543060 
	C181.035446,291.245819 181.321686,290.386200 186.602707,289.205048 
z"/>
<path fill="#EFDBE5" opacity="1.000000" stroke="none" 
	d="
M284.396912,291.572205 
	C290.308685,288.142639 291.285004,288.384247 291.857300,293.334503 
	C291.121674,293.468750 290.370819,293.634399 289.611450,293.736420 
	C288.837463,293.840393 288.055084,293.881805 287.276367,293.950623 
	C287.114532,294.466858 286.952698,294.983093 286.790863,295.499359 
	C288.680573,296.213409 290.570251,296.927490 292.549866,297.675537 
	C292.333191,300.697205 291.594360,301.668243 288.214447,300.496521 
	C286.201752,299.798798 284.721741,297.146912 283.402466,295.113892 
	C282.991089,294.479980 283.888611,292.996674 284.396912,291.572205 
z"/>
<path fill="#EFDBE5" opacity="1.000000" stroke="none" 
	d="
M391.240417,291.696594 
	C392.702240,290.788391 393.823822,289.729828 394.945404,288.671234 
	C395.358032,288.897614 395.770660,289.123962 396.183289,289.350342 
	C394.835938,292.963013 393.488586,296.575714 392.093262,300.317017 
	C389.034332,299.875031 385.662445,292.071960 389.205414,287.301880 
	C389.770325,288.716644 390.335236,290.131409 391.240417,291.696594 
z"/>
<path fill="#F6EBF0" opacity="1.000000" stroke="none" 
	d="
M240.737396,292.550110 
	C238.570633,295.760864 236.601669,298.588501 234.632690,301.416107 
	C234.171097,301.158356 233.709488,300.900574 233.247894,300.642822 
	C233.247894,297.277985 233.247894,293.913147 233.247894,290.018921 
	C235.965347,290.972809 239.326996,287.518982 240.737396,292.550110 
z"/>
<path fill="#E6CFE3" opacity="1.000000" stroke="none" 
	d="
M200.963684,300.266846 
	C192.535370,301.004456 191.473969,300.054443 192.406631,292.530304 
	C192.541290,291.443909 193.939636,290.514099 194.753189,289.511841 
	C195.180084,289.791992 195.606979,290.072144 196.033875,290.352295 
	C196.033875,292.448303 196.033875,294.544342 196.033875,296.231476 
	C197.650116,298.262177 202.404526,294.815247 200.963684,300.266846 
z"/>
<path fill="#E6CFE3" opacity="1.000000" stroke="none" 
	d="
M376.248596,295.873596 
	C376.489685,293.133667 374.681396,290.019501 379.430695,289.081604 
	C379.722717,291.453278 380.009308,293.780640 380.321838,296.318878 
	C381.759583,296.978577 383.472809,297.764709 385.595917,298.738892 
	C380.052521,302.384979 376.618927,301.241425 376.248596,295.873596 
z"/>
<path fill="#E6CFE3" opacity="1.000000" stroke="none" 
	d="
M248.629898,290.936035 
	C249.127106,290.965057 249.089462,290.904938 249.106049,290.893158 
	C248.433411,292.953003 247.826859,295.057220 247.026855,297.085144 
	C246.463104,298.514221 245.636688,299.839691 244.927551,301.211426 
	C244.392746,300.994873 243.857925,300.778320 243.323120,300.561768 
	C243.323120,297.185699 243.323120,293.809662 243.323120,289.682953 
	C245.005386,290.111115 246.569046,290.509064 248.629898,290.936035 
z"/>
<path fill="#EFDBE5" opacity="1.000000" stroke="none" 
	d="
M344.986877,293.258759 
	C345.684143,291.548248 346.375092,290.281250 347.066040,289.014221 
	C347.672241,290.316345 348.558044,291.566711 348.811249,292.934143 
	C349.103638,294.513519 349.130066,296.273224 348.723785,297.809662 
	C348.395630,299.050690 347.253906,300.076599 346.473114,301.197937 
	C345.975586,300.960205 345.478088,300.722443 344.980560,300.484711 
	C344.980560,298.223877 344.980560,295.963074 344.986877,293.258759 
z"/>
<path fill="#E6CFE3" opacity="1.000000" stroke="none" 
	d="
M314.654694,300.550232 
	C314.128296,300.808197 313.907776,300.905304 313.811188,300.834137 
	C310.757935,298.584747 311.495850,291.143585 316.185181,288.786072 
	C315.751434,293.070160 315.384888,296.690552 314.654694,300.550232 
z"/>
<path fill="#000000" opacity="1.000000" stroke="none" 
	d="
M283.223175,262.652771 
	C283.047333,264.822754 282.642609,266.708954 282.015015,268.517822 
	C281.964111,268.664459 279.965240,268.583984 279.605194,268.082397 
	C278.824402,266.994629 277.972321,265.495880 278.126373,264.289978 
	C278.515656,261.242493 280.709808,261.491760 283.223175,262.652771 
z"/>
<path fill="#000000" opacity="1.000000" stroke="none" 
	d="
M389.581390,268.702728 
	C388.454407,267.085083 387.486145,265.453064 387.105408,263.693878 
	C387.020264,263.300385 389.293396,261.726227 389.954163,261.994232 
	C391.019928,262.426422 392.366211,263.997925 392.283203,264.977081 
	C392.174866,266.255554 390.788666,267.425690 389.581390,268.702728 
z"/>
</svg>